# xmcd
#
# Track frame offsets: 
#        150
#        6865
#        13637
#        18153
#        24997
#        33486
#        40295
#        45811
#        53199
#        58259
#        67423
#        74675
#        82449
#        88965
#        95940
#        102202
#        109631
#        120972
#        127153
#        131884
#        138025
#        146461
#        154511
#        162749
#
# Disc length: 2240 seconds
#
# Revision: 0
# Processed by: cddbd v1.5.2PL0 Copyright (c) Steve Scherf et al.
# Submitted via: ExactAudioCopyFreeDBPlugin 1.0
#
DISCID=5a08be18
DTITLE=Guided By Voices - Warp and Woof
DYEAR=2019
DGENRE=Art Rock
TTITLE0=Bury The Mouse
TTITLE1=Angelic Weirdness
TTITLE2=Foreign Deputies
TTITLE3=Dead Liquor Store
TTITLE4=Mumbling Amens
TTITLE5=Cohesive Scoops
TTITLE6=Photo Range Within
TTITLE7=My Dog Surprise
TTITLE8=Tiny Apes
TTITLE9=Blue Jay House
TTITLE10=Down The Island
TTITLE11=Thimble Society
TTITLE12=My Angel
TTITLE13=More Reduction Linda
TTITLE14=Cool Jewels and Aprons
TTITLE15=Even Next
TTITLE16=It Will Never Be Simple
TTITLE17=The Stars Behind Us
TTITLE18=Skull Arrow
TTITLE19=Out Of The Blue Race
TTITLE20=Coming Back From Now On
TTITLE21=The Pipers The Vipers The Snakes
TTITLE22=Time Remains In Central Position
TTITLE23=End It With Light
EXTD=
EXTT0=
EXTT1=
EXTT2=
EXTT3=
EXTT4=
EXTT5=
EXTT6=
EXTT7=
EXTT8=
EXTT9=
EXTT10=
EXTT11=
EXTT12=
EXTT13=
EXTT14=
EXTT15=
EXTT16=
EXTT17=
EXTT18=
EXTT19=
EXTT20=
EXTT21=
EXTT22=
EXTT23=
PLAYORDER=
